<svg xmlns="http://www.w3.org/2000/svg" viewBox="0 0 31.49 31.28"><defs><style>.cls-1{fill:#ff50ac;}.cls-2{fill:#ff884d;}.cls-3{fill:#ff4b50;}.cls-4{fill:#e90b73;}.cls-5{fill:#c40593;}.cls-6{fill:#7241da;}</style></defs><g id="Layer_2" data-name="Layer 2"><g id="Layer_1-2" data-name="Layer 1"><path class="cls-1" d="M17.43,17.74l.06-.17a1.21,1.21,0,0,0,.05-.18c.05-.11,0-.24.07-.36l1.52.18a3.35,3.35,0,0,1-.11.55c0,.09,0,.18-.07.27s-.07.18-.1.26Z"/><path class="cls-1" d="M19.36,18.49c0-.1.07-.19.11-.29s.05-.21.08-.31a6,6,0,0,0,.12-.61l1.52.17a5.66,5.66,0,0,1-.16.82c0,.13-.06.26-.1.39l-.15.39Z"/><path class="cls-1" d="M21.29,19.25l.16-.42c.05-.14.07-.29.11-.43s.11-.59.17-.88l1.52.18a9.6,9.6,0,0,1-.2,1.07c-.05.17-.09.35-.15.52l-.18.52Z"/><path class="cls-1" d="M23.22,20l.2-.54a5.12,5.12,0,0,0,.15-.56,8.82,8.82,0,0,0,.22-1.14l1.52.18a9.75,9.75,0,0,1-.25,1.33c-.06.22-.11.44-.18.66l-.23.63Z"/><path class="cls-1" d="M25.16,20.76l.24-.67c.07-.22.12-.46.19-.69a12.81,12.81,0,0,0,.26-1.4l1.52.18a12.05,12.05,0,0,1-.3,1.59c-.07.27-.13.53-.21.79l-.28.76Z"/><path class="cls-1" d="M27.09,21.52l.29-.8c.08-.27.15-.54.22-.81a13.83,13.83,0,0,0,.31-1.66l1.52.18a13.1,13.1,0,0,1-.35,1.85c-.08.3-.15.61-.25.91l-.32.88Z"/><path class="cls-1" d="M29,22.27l.33-.92c.1-.31.18-.62.26-.94A15.82,15.82,0,0,0,30,18.49l1.52.18a16.67,16.67,0,0,1-.39,2.11c-.1.35-.18.7-.29,1s-.24.68-.37,1Z"/><path class="cls-2" d="M16.91,18.58a.53.53,0,0,0,.12-.14,1.58,1.58,0,0,1,.12-.15c0-.12.14-.2.17-.32l1.37.68c-.06.18-.2.32-.27.49l-.18.23a.92.92,0,0,1-.17.22Z"/><path class="cls-2" d="M18.48,20a1.69,1.69,0,0,0,.2-.25l.19-.25a6,6,0,0,0,.31-.55l1.37.68a6.37,6.37,0,0,1-.41.72l-.25.33a2,2,0,0,1-.26.32Z"/><path class="cls-2" d="M20,21.31a1.6,1.6,0,0,0,.28-.35l.27-.36a8.46,8.46,0,0,0,.44-.77l1.37.68a8.92,8.92,0,0,1-.54.95l-.32.43a3.65,3.65,0,0,1-.35.43Z"/><path class="cls-3" d="M16.14,19.22a2.28,2.28,0,0,0,.3-.21.83.83,0,0,0,.15-.11,1.49,1.49,0,0,1,.14-.12l1.06,1.1-.21.19a2,2,0,0,1-.23.17,2.94,2.94,0,0,1-.47.31Z"/><path class="cls-3" d="M17.15,21a4.86,4.86,0,0,0,.53-.35c.08-.07.18-.12.25-.19l.24-.22,1,1.11-.3.28c-.1.09-.22.16-.33.25a6.28,6.28,0,0,1-.69.45Z"/><path class="cls-3" d="M18.16,22.84a6.45,6.45,0,0,0,.75-.49c.12-.1.25-.17.36-.28l.33-.3,1.06,1.11-.4.36c-.14.13-.29.22-.44.34a7.87,7.87,0,0,1-.91.59Z"/><path class="cls-3" d="M19.18,24.65c.32-.21.67-.39,1-.63s.31-.23.46-.36l.43-.39,1.05,1.11-.5.45a5.34,5.34,0,0,1-.53.41,8.55,8.55,0,0,1-1.14.74Z"/><path class="cls-3" d="M20.19,26.46a11.59,11.59,0,0,0,1.19-.78,5.93,5.93,0,0,0,.56-.43l.53-.48,1.06,1.1-.6.55c-.2.18-.43.33-.64.49a10.77,10.77,0,0,1-1.35.88Z"/><path class="cls-4" d="M15.21,19.54c.13,0,.23-.07.36-.08s.11-.05.17-.06.12,0,.17-.07l.62,1.4a1.17,1.17,0,0,1-.26.1,2.77,2.77,0,0,1-.26.1,5.41,5.41,0,0,1-.55.12Z"/><path class="cls-4" d="M15.55,21.58a6,6,0,0,0,.61-.13c.11,0,.2-.08.3-.11a2.49,2.49,0,0,0,.29-.11l.62,1.39a2.54,2.54,0,0,1-.38.16c-.13,0-.25.1-.39.13a5.45,5.45,0,0,1-.8.18Z"/><path class="cls-4" d="M15.89,23.63a6.42,6.42,0,0,0,.87-.19c.15,0,.28-.11.42-.15a3.07,3.07,0,0,0,.42-.17l.62,1.4a4.5,4.5,0,0,1-.51.2c-.17.06-.33.13-.51.18a9.56,9.56,0,0,1-1.06.24Z"/><path class="cls-4" d="M16.23,25.68a9.21,9.21,0,0,0,1.13-.26c.18-.05.36-.13.54-.19a5,5,0,0,0,.54-.21l.63,1.39a4.86,4.86,0,0,1-.63.25c-.22.08-.42.17-.64.23a12,12,0,0,1-1.32.3Z"/><path class="cls-4" d="M16.57,27.72A11,11,0,0,0,18,27.41c.23-.06.45-.16.68-.23s.45-.16.66-.27l.62,1.4c-.24.12-.5.2-.75.3s-.51.19-.77.26a12.29,12.29,0,0,1-1.57.36Z"/><path class="cls-4" d="M16.9,29.77a15.16,15.16,0,0,0,1.65-.37c.27-.08.53-.19.8-.28s.53-.19.78-.31l.63,1.39a8.48,8.48,0,0,1-.88.35,9.37,9.37,0,0,1-.89.31,14.42,14.42,0,0,1-1.84.42Z"/><path class="cls-5" d="M14.2,19.53a2.33,2.33,0,0,0,.37,0,1.28,1.28,0,0,0,.19,0H15l.11,1.52-.28,0a2.81,2.81,0,0,1-.29,0,3.55,3.55,0,0,1-.56-.06Z"/><path class="cls-5" d="M13.84,21.57a3.2,3.2,0,0,0,.63.07c.1,0,.21,0,.32,0l.31,0,.12,1.52-.42,0c-.14,0-.27,0-.41,0a5.85,5.85,0,0,1-.83-.09Z"/><path class="cls-5" d="M13.47,23.62a5.27,5.27,0,0,0,.89.09,3.39,3.39,0,0,0,.45,0l.45,0,.11,1.52-.54,0a5,5,0,0,1-.55,0,6.49,6.49,0,0,1-1.08-.12Z"/><path class="cls-5" d="M13.1,25.66a8.8,8.8,0,0,0,1.15.13c.2,0,.39,0,.58,0l.58,0,.12,1.52-.68,0a5.15,5.15,0,0,1-.68,0,8.72,8.72,0,0,1-1.34-.15Z"/><path class="cls-6" d="M13.28,19.19a.4.4,0,0,0,.17.09l.16.08.17.06.08,0H14L13.55,21l-.14,0-.13-.05-.26-.1-.25-.12a1,1,0,0,1-.25-.13Z"/><path class="cls-6" d="M12.25,21a1.43,1.43,0,0,0,.27.15l.29.14.29.1.15.06.15,0L13,23l-.2-.05-.2-.07-.38-.14-.38-.18a2.53,2.53,0,0,1-.36-.2Z"/><path class="cls-6" d="M11.21,22.79c.12.08.26.14.39.21l.4.19.43.15.2.08.22,0L12.45,25l-.27-.07-.25-.09-.52-.19-.49-.23a4.45,4.45,0,0,1-.48-.26Z"/><path class="cls-6" d="M10.17,24.58a3.1,3.1,0,0,0,.51.27l.52.25.55.2.27.1.28.07L11.89,27l-.32-.09-.32-.11-.64-.24L10,26.22a4.25,4.25,0,0,1-.6-.31Z"/><path class="cls-6" d="M9.13,26.38a4.71,4.71,0,0,0,.63.33l.64.31.67.24.33.12.35.09L11.34,29,11,28.84l-.38-.13-.76-.28-.73-.35a5,5,0,0,1-.72-.38Z"/><path class="cls-6" d="M8.09,28.17a5.91,5.91,0,0,0,.74.4c.26.12.51.25.77.36l.79.29.4.15.41.1L10.79,31l-.45-.12-.45-.16L9,30.34c-.29-.12-.57-.26-.86-.4a7.36,7.36,0,0,1-.83-.44Z"/><path class="cls-1" d="M12.46,18.49A2.89,2.89,0,0,0,13,19l-.92,1.23a4.33,4.33,0,0,1-.81-.79Z"/><path class="cls-1" d="M10.84,19.79a5,5,0,0,0,.91.87l-.91,1.23a6.18,6.18,0,0,1-1.19-1.15Z"/><path class="cls-1" d="M9.22,21.08a6.59,6.59,0,0,0,1.29,1.24l-.92,1.23A8.58,8.58,0,0,1,8,22Z"/><path class="cls-1" d="M7.6,22.38A9,9,0,0,0,9.27,24l-.92,1.23a10.47,10.47,0,0,1-1.94-1.88Z"/><path class="cls-1" d="M6,23.67a10.93,10.93,0,0,0,2,2l-.91,1.22a12.31,12.31,0,0,1-2.32-2.24Z"/><path class="cls-1" d="M4.36,25a13.41,13.41,0,0,0,2.42,2.34l-.92,1.22a15.06,15.06,0,0,1-2.69-2.6Z"/><path class="cls-1" d="M2.74,26.27A15.25,15.25,0,0,0,5.54,29l-.92,1.22a16.3,16.3,0,0,1-3.07-3Z"/><path class="cls-2" d="M12,17.62a1.09,1.09,0,0,1,0,.17l.09.17c0,.11.13.2.17.32L11,19.12a3.36,3.36,0,0,1-.27-.49c0-.08-.09-.16-.13-.25l-.09-.26Z"/><path class="cls-2" d="M10,18.29c0,.1.08.2.11.3a2.44,2.44,0,0,0,.14.28,4.83,4.83,0,0,0,.3.55l-1.27.85c-.13-.24-.3-.46-.41-.72s-.12-.25-.17-.37l-.14-.39Z"/><path class="cls-2" d="M8.06,19l.15.42c.06.13.13.26.2.4a7.37,7.37,0,0,0,.43.78l-1.27.84A8.78,8.78,0,0,1,7,20.47c-.07-.17-.16-.33-.23-.5l-.19-.51Z"/><path class="cls-3" d="M11.83,16.64c0,.12,0,.25,0,.38a1.63,1.63,0,0,0,.07.36l-1.49.36a3.53,3.53,0,0,1-.1-.55c0-.19,0-.38,0-.57Z"/><path class="cls-3" d="M9.75,16.61c0,.21,0,.43,0,.64s.05.42.12.62l-1.49.36c-.08-.26-.09-.54-.15-.81a7.77,7.77,0,0,1,0-.83Z"/><path class="cls-3" d="M7.68,16.58c0,.3,0,.6,0,.9s.07.59.16.88l-1.48.36a9.6,9.6,0,0,1-.2-1.07c0-.36,0-.73,0-1.09Z"/><path class="cls-3" d="M5.61,16.55a11.13,11.13,0,0,0,0,1.16,8.79,8.79,0,0,0,.21,1.14l-1.49.36a11.55,11.55,0,0,1-.24-1.33,12.2,12.2,0,0,1-.06-1.35Z"/><path class="cls-3" d="M3.53,16.52c0,.48,0,.95.07,1.42a12.79,12.79,0,0,0,.25,1.4l-1.48.36a12.34,12.34,0,0,1-.29-1.59C2,17.58,2,17,2,16.5Z"/><path class="cls-4" d="M12,15.67a3.27,3.27,0,0,0-.18.7l-1.52-.16a4.87,4.87,0,0,1,.26-1.08Z"/><path class="cls-4" d="M10.07,14.94a4.94,4.94,0,0,0-.29,1.22L8.25,16a6.8,6.8,0,0,1,.39-1.6Z"/><path class="cls-4" d="M8.13,14.21a7.29,7.29,0,0,0-.42,1.73l-1.52-.15a9.11,9.11,0,0,1,.51-2.12Z"/><path class="cls-4" d="M6.19,13.48a9.23,9.23,0,0,0-.54,2.25l-1.52-.16a10.4,10.4,0,0,1,.63-2.63Z"/><path class="cls-4" d="M4.24,12.75a12,12,0,0,0-.66,2.77l-1.52-.16a13,13,0,0,1,.75-3.14Z"/><path class="cls-4" d="M2.3,12a13.75,13.75,0,0,0-.78,3.28L0,15.15a15.26,15.26,0,0,1,.87-3.66Z"/><path class="cls-5" d="M12.51,14.81a3.08,3.08,0,0,0-.39.62l-1.38-.66a4.52,4.52,0,0,1,.61-.95Z"/><path class="cls-5" d="M10.93,13.47a4.56,4.56,0,0,0-.68,1.06l-1.38-.67a6.5,6.5,0,0,1,.89-1.38Z"/><path class="cls-5" d="M9.35,12.13a6.42,6.42,0,0,0-1,1.5L7,13a8.35,8.35,0,0,1,1.18-1.82Z"/><path class="cls-5" d="M7.77,10.78a8.91,8.91,0,0,0-1.26,2l-1.38-.67A10.89,10.89,0,0,1,6.6,9.79Z"/><path class="cls-6" d="M13.28,14.17l-.16.09a1.49,1.49,0,0,0-.14.12c-.11,0-.18.16-.29.23l-1.07-1.09c.15-.11.27-.26.43-.36l.23-.17.24-.15Z"/><path class="cls-6" d="M12.25,12.37l-.28.16-.25.2a4.72,4.72,0,0,0-.48.41l-1.08-1.09a7.84,7.84,0,0,1,.63-.54l.34-.25.35-.21Z"/><path class="cls-6" d="M11.21,10.58l-.39.23c-.12.08-.24.18-.36.27a7.44,7.44,0,0,0-.68.58L8.71,10.57a7.06,7.06,0,0,1,.83-.71c.14-.11.28-.22.43-.32l.47-.29Z"/><path class="cls-6" d="M10.17,8.78l-.5.3-.47.35a10.27,10.27,0,0,0-.88.75L7.25,9.09a10.86,10.86,0,0,1,1-.88c.18-.13.36-.28.54-.4l.58-.35Z"/><path class="cls-6" d="M9.13,7l-.61.37c-.2.13-.38.28-.57.42a10.68,10.68,0,0,0-1.08.92L5.79,7.61A13.63,13.63,0,0,1,7,6.56c.22-.16.43-.33.65-.48l.69-.42Z"/><path class="cls-6" d="M8.09,5.19l-.72.44-.68.5A14.73,14.73,0,0,0,5.41,7.22L4.34,6.13A15,15,0,0,1,5.76,4.91c.25-.19.5-.38.76-.55l.8-.49Z"/><path class="cls-1" d="M14.29,13.82a3.29,3.29,0,0,0-.7.19L13,12.6a4.42,4.42,0,0,1,1.08-.29Z"/><path class="cls-1" d="M14,11.77a4.92,4.92,0,0,0-1.21.33l-.61-1.4a6.83,6.83,0,0,1,1.59-.44Z"/><path class="cls-1" d="M13.67,9.72A7.33,7.33,0,0,0,12,10.2l-.6-1.41a8.43,8.43,0,0,1,2.09-.58Z"/><path class="cls-1" d="M13.36,7.67a9.13,9.13,0,0,0-2.23.62l-.6-1.4a10.73,10.73,0,0,1,2.6-.74Z"/><path class="cls-1" d="M13.05,5.62a10.83,10.83,0,0,0-2.74.76L9.71,5a13,13,0,0,1,3.11-.88Z"/><path class="cls-1" d="M12.74,3.56a13.69,13.69,0,0,0-3.25.92l-.6-1.41a15.25,15.25,0,0,1,3.62-1Z"/><path class="cls-1" d="M12.43,1.51A15.29,15.29,0,0,0,8.68,2.57l-.61-1.4A16.63,16.63,0,0,1,12.2,0Z"/><path class="cls-2" d="M15.29,13.83c-.12,0-.23-.05-.36,0h-.38l-.09-1.52.28,0,.29,0a3.55,3.55,0,0,1,.56.06Z"/><path class="cls-2" d="M15.69,11.8a4.34,4.34,0,0,0-.63-.08l-.32,0-.32,0-.09-1.52.42,0,.41,0a5.57,5.57,0,0,1,.82.1Z"/><path class="cls-2" d="M16.09,9.76c-.3,0-.59-.11-.89-.11l-.45,0-.45,0-.09-1.52.54,0,.55,0a9.94,9.94,0,0,1,1.08.13Z"/><path class="cls-3" d="M16.21,14.19a3.41,3.41,0,0,0-.33-.17.85.85,0,0,0-.17-.06.43.43,0,0,0-.17-.06L16,12.43a1.14,1.14,0,0,1,.26.09c.09,0,.18.05.27.1a3.29,3.29,0,0,1,.49.26Z"/><path class="cls-3" d="M17.27,12.41a3.71,3.71,0,0,0-.56-.29,2.49,2.49,0,0,0-.29-.11,1.51,1.51,0,0,0-.3-.1l.43-1.47a2.55,2.55,0,0,1,.39.13c.13,0,.26.08.38.14a6.51,6.51,0,0,1,.74.39Z"/><path class="cls-3" d="M18.34,10.63a7.6,7.6,0,0,0-.8-.42c-.13-.06-.28-.1-.41-.15a3.66,3.66,0,0,0-.43-.15l.43-1.47a5.34,5.34,0,0,1,.52.18,5.1,5.1,0,0,1,.5.19,8.12,8.12,0,0,1,1,.51Z"/><path class="cls-3" d="M19.4,8.85a9.14,9.14,0,0,0-1-.54c-.17-.08-.36-.13-.54-.2a3.58,3.58,0,0,0-.55-.19l.43-1.47a4.83,4.83,0,0,1,.64.22c.21.08.43.14.63.24a9.75,9.75,0,0,1,1.2.63Z"/><path class="cls-3" d="M20.46,7.07a10.74,10.74,0,0,0-1.26-.66c-.21-.1-.44-.17-.66-.26s-.45-.17-.68-.22l.43-1.47a7.75,7.75,0,0,1,.77.26,6.83,6.83,0,0,1,.75.29,10.92,10.92,0,0,1,1.44.75Z"/><path class="cls-4" d="M17,14.84a3.33,3.33,0,0,0-.55-.51l.9-1.23a4.34,4.34,0,0,1,.83.77Z"/><path class="cls-4" d="M18.58,13.52a5.45,5.45,0,0,0-.94-.86l.9-1.24a6.88,6.88,0,0,1,1.22,1.13Z"/><path class="cls-4" d="M20.18,12.2A7.27,7.27,0,0,0,18.86,11l.9-1.24a9,9,0,0,1,1.6,1.49Z"/><path class="cls-4" d="M21.78,10.88a9.81,9.81,0,0,0-1.7-1.58L21,8.06a11.2,11.2,0,0,1,2,1.85Z"/><path class="cls-4" d="M23.38,9.56A11.6,11.6,0,0,0,21.3,7.62l.9-1.23a13,13,0,0,1,2.36,2.2Z"/><path class="cls-4" d="M25,8.24a14.43,14.43,0,0,0-2.45-2.3l.89-1.23a14.79,14.79,0,0,1,2.74,2.56Z"/><path class="cls-5" d="M17.45,15.7a3,3,0,0,0-.32-.65l1.26-.86a4.25,4.25,0,0,1,.5,1Z"/><path class="cls-5" d="M19.41,15a4.93,4.93,0,0,0-.57-1.12L20.11,13a6.75,6.75,0,0,1,.74,1.47Z"/><path class="cls-5" d="M21.36,14.3a7.41,7.41,0,0,0-.8-1.59l1.26-.86a8.22,8.22,0,0,1,1,1.94Z"/><path class="cls-5" d="M23.31,13.6a9.49,9.49,0,0,0-1-2.06l1.26-.86a10.3,10.3,0,0,1,1.22,2.41Z"/><path class="cls-6" d="M17.63,16.68a3.47,3.47,0,0,0-.1-.73L19,15.56a4.65,4.65,0,0,1,.15,1.12Z"/><path class="cls-6" d="M19.71,16.68a5.79,5.79,0,0,0-.17-1.25L21,15a7,7,0,0,1,.22,1.64Z"/><path class="cls-6" d="M21.78,16.68a7.47,7.47,0,0,0-.23-1.77L23,14.52a9.2,9.2,0,0,1,.28,2.16Z"/><path class="cls-6" d="M23.86,16.68a9.29,9.29,0,0,0-.31-2.29L25,14a11,11,0,0,1,.36,2.68Z"/><path class="cls-6" d="M25.93,16.68a11.59,11.59,0,0,0-.37-2.81L27,13.48a12.9,12.9,0,0,1,.42,3.2Z"/><path class="cls-6" d="M28,16.68a13.35,13.35,0,0,0-.44-3.33L29.05,13a15.2,15.2,0,0,1,.49,3.72Z"/></g></g></svg>